<svg t="1736094078962" class="icon" viewBox="0 0 3276 1024" version="1.1" xmlns="http://www.w3.org/2000/svg" p-id="7010" width="200" height="200"><path d="M1993.088624 920.169515l249.848505-1.228763 73.520994-536.559903 187.386379 210.528084c79.255222 101.372959 169.569313 98.301051 269.303921 5.734228l234.284171-228.34515-84.375069 548.437947h252.920413L3276.736515 182.706839c-1.023969-210.937672-133.116007-231.00747-292.855214-88.266152l-294.083978 292.036039-251.896443-294.903153c-102.396928-127.99616-248.824535-128.405748-312.515425 51.198464l-132.296831 777.397478zM167.965778 4.536184A5.529434 5.529434 0 0 1 173.290418 0.030719h647.148586c94.614762 0 161.377559 22.527324 199.878804 67.581973 38.501245 45.054648 49.969701 109.155125 33.99578 192.506224-13.925982 109.564713-53.246403 200.083597-108.540744 254.35397-55.294341 54.67996-110.179095 93.795586-255.99232 104.854454H329.752924l-61.028569 303.504495a5.529434 5.529434 0 0 1-5.32464 4.505465l-258.040259 0.409588A5.529434 5.529434 0 0 1 0.034816 921.398278L167.965778 4.536184z m194.758957 399.962401h280.567583c50.379289 0 87.446977-8.806136 111.203064-26.418407a106.288011 106.288011 0 0 0 43.621092-67.172385 81.098367 81.098367 0 0 0-13.721189-67.581973c-14.33557-18.431447-45.66903-27.851964-94.614761-27.851964h-290.807276l-36.248513 189.024729zM1173.503612 2.693039A3.071908 3.071908 0 0 1 1176.985107 0.030719h255.377939a3.071908 3.071908 0 0 1 3.071908 3.686289l-121.237963 666.194415H1978.343467a3.071908 3.071908 0 0 1 3.276701 3.686289l-38.910832 239.608812a3.071908 3.071908 0 0 1-3.071908 2.867114H1092.610039a67.172385 67.172385 0 0 1-66.35321-79.050429l147.451577-834.33017z" p-id="7011"></path></svg>