<svg t="1733821598406" class="icon" viewBox="0 0 1320 1024" version="1.1" xmlns="http://www.w3.org/2000/svg" p-id="5119" width="200" height="200"><path d="M1312.708953 460.722307a46.149924 46.149924 0 0 0-38.069803-72.254932h-285.135053V46.616085a46.072231 46.072231 0 0 0-84.685888-25.638847l-362.051593 542.300455c-13.984825 21.754173-8.546282 50.500759 13.207891 64.485585 6.992413 5.438543 16.31563 7.769347 25.638847 7.769347h284.358118v341.85129c0 25.638847 20.977238 46.616085 46.616085 46.616085 15.538695 0 29.52352-7.769347 38.069803-20.977238l362.051593-542.300455z" p-id="5120"></path><path d="M215.98786 78.781184h309.996965a92.843703 92.843703 0 0 1 0 185.687405H215.98786a92.843703 92.843703 0 0 1 0-185.687405z m0 742.74962h309.996965c51.277693 0 92.455235 41.177542 92.455236 92.455235 0 51.277693-41.177542 93.23217-92.455236 93.23217H215.98786c-51.277693 0-92.455235-41.954476-92.455235-93.23217 0-51.277693 41.177542-92.455235 92.455235-92.455235z m-123.532625-371.37481h247.842185c51.277693 0 92.455235 41.954476 92.455236 93.23217-0.776935 50.500759-41.954476 92.455235-92.455236 92.455235H92.455235c-51.277693 0-92.455235-41.954476-92.455235-93.23217 0-51.277693 41.177542-92.455235 92.455235-92.455235z" p-id="5121"></path></svg>