<svg t="1736096342673" class="icon" viewBox="0 0 1024 1024" version="1.1" xmlns="http://www.w3.org/2000/svg" p-id="15118" width="200" height="200"><path d="M510.889713 63.97915c-247.665683 0-448.437335 200.782909-448.437335 448.443475 0 121.375371 48.304146 231.401254 126.631072 312.156486 18.578124 19.147082 38.836517 36.612872 60.557214 52.200896 73.579809 52.868091 163.742295 84.084047 261.249049 84.084047 98.371448 0 189.268668-31.758308 263.208681-85.451184 21.652136-15.745612 41.830711-33.367969 60.313667-52.635801 77.317946-80.58127 124.930337-189.871395 124.930337-310.35342C959.341375 264.763083 758.560512 63.97915 510.889713 63.97915zM510.889713 889.11187c-89.903589 0-172.48133-31.758308-237.311871-84.500533 46.02422-99.168604 135.642307-166.608575 238.436484-166.608575 102.363366 0 191.612039 66.915016 237.805104 165.381631C684.757622 856.916611 601.515756 889.11187 510.889713 889.11187zM512.014326 566.234205c-69.238944 0-125.566834-56.335053-125.566834-125.563764s56.32789-125.563764 125.566834-125.563764c69.235874 0 125.572974 56.335053 125.572974 125.563764S581.2502 566.234205 512.014326 566.234205zM802.998607 749.832733c-38.781258-70.543659-96.832396-125.897362-165.798117-156.656923 44.036959-36.19127 72.134901-91.053786 72.134901-152.506393 0-108.956527-88.355327-197.312878-197.321064-197.312878-108.96983 0-197.315948 88.355327-197.315948 197.312878 0 61.452607 28.097942 116.315122 72.128761 152.506393-69.508074 31.007201-127.965463 87.00661-166.764118 158.373007-53.612035-65.093531-85.862553-148.425448-85.862553-239.127216 0-207.719902 168.979576-376.690268 376.689245-376.690268 207.714785 0 376.701524 168.970366 376.701524 376.690268C887.591237 602.37124 855.816556 684.984796 802.998607 749.832733z" p-id="15119"></path></svg>