<svg t="1734531002021" class="icon" viewBox="0 0 1066 1024" version="1.1" xmlns="http://www.w3.org/2000/svg" p-id="8951" width="200" height="200"><path d="M251.733333 896c-21.333333 0-39.466667-7.466667-54.4-22.4A74.069333 74.069333 0 0 1 174.933333 819.2V226.133333c0-21.333333 7.466667-39.466667 22.4-54.4 14.933333-14.933333 33.066667-22.4 54.4-22.4h286.933334V213.333333H251.733333c-2.858667 0-5.674667 1.408-8.533333 4.266667s-4.266667 5.674667-4.266667 8.533333v593.066667c0 2.858667 1.408 5.674667 4.266667 8.533333s5.674667 4.266667 8.533333 4.266667h286.933334V896H251.733333z m457.6-190.933333l-43.733333-46.933334L769.066667 554.666667h-358.4v-64h358.4L665.6 387.2l43.733333-46.933333L891.733333 522.666667l-182.4 182.4z" p-id="8952"></path></svg>