<svg t="1734531494410" class="icon" viewBox="0 0 1024 1024" version="1.1" xmlns="http://www.w3.org/2000/svg" p-id="11200" width="200" height="200"><path d="M941.568 69.818182H148.736c-21.527273 0-35.886545 14.405818-35.886545 35.979636V480.116364c0 21.597091 14.359273 35.979636 35.886545 35.979636s35.863273-14.382545 35.863273-35.979636V141.800727h721.105454v683.776h-405.410909c-21.504 0-35.84 14.405818-35.84 36.002909 0 21.597091 14.336 35.979636 35.84 35.979637h441.274182c21.527273 0 35.886545-14.382545 35.886545-35.979637V105.797818C977.454545 84.247273 963.095273 69.818182 941.568 69.818182z" p-id="11201"></path><path d="M338.850909 609.652364H73.425455c-25.134545 0-35.886545 28.788364-17.943273 46.778181L320.930909 922.763636c17.92 17.989818 46.638545 3.584 46.638546-17.989818V638.440727c0-17.989818-10.752-28.788364-28.695273-28.788363z" p-id="11202"></path></svg>