<svg t="1734531525091" class="icon" viewBox="0 0 1088 1024" version="1.1" xmlns="http://www.w3.org/2000/svg" p-id="12227" width="200" height="200"><path d="M483.84 112v73.92H241.536a23.552 23.552 0 0 0-23.552 23.552v605.056c0 12.992 10.56 23.552 23.552 23.552h605.056a23.552 23.552 0 0 0 23.552-23.552v-228.48h73.92v228.48c0 53.824-43.648 97.472-97.472 97.472H241.472a97.472 97.472 0 0 1-97.472-97.472V209.472c0-53.824 43.648-97.472 97.472-97.472h242.432z m402.56 6.4a51.2 51.2 0 0 1 51.2 51.2v317.696a10.24 10.24 0 0 1-17.472 7.232L561.472 135.872a10.24 10.24 0 0 1 7.232-17.536h317.76z" p-id="12228"></path></svg>