<svg t="1734272309691" class="icon" viewBox="0 0 1024 1024" version="1.1" xmlns="http://www.w3.org/2000/svg" p-id="7956" width="200" height="200"><path d="M64 832h896a64 64 0 0 1 64 64v64a64 64 0 0 1-64 64H64a64 64 0 0 1-64-64v-64a64 64 0 0 1 64-64z m675.84-633.6a64 64 0 0 1 39.68 57.6v364.8a64 64 0 0 1-64 64H353.28a64 64 0 0 1-58.88-39.68A64 64 0 0 1 308.48 576l90.24-92.16L217.6 302.72a64 64 0 0 1 0-90.24L308.48 121.6a64 64 0 0 1 90.24 0l181.12 181.12 90.88-90.24a64 64 0 0 1 69.12-14.08z" p-id="7957"></path></svg>