<svg t="1735741651240" class="icon" viewBox="0 0 1024 1024" version="1.1" xmlns="http://www.w3.org/2000/svg" p-id="4241" width="200" height="200"><path d="M888.021333 64H136.021333c-39.808 0-72.021333 32.213333-72.021333 72.021333v752c0 39.765333 32.213333 71.978667 72.021333 71.978667H640a35.968 35.968 0 1 0 0-72.021333H135.978667V136.021333h752V640a35.968 35.968 0 1 0 72.021333 0V135.978667c0-39.765333-32.213333-71.978667-72.021333-71.978667z" fill="#000000" opacity=".65" p-id="4242"></path><path d="M633.514667 582.485333l103.765333-103.765333a18.005333 18.005333 0 0 0-12.672-30.72h-240.64a35.968 35.968 0 0 0-35.968 36.010667v240.469333c0 16 19.413333 24.106667 30.72 12.714667l103.765333-103.808 188.032 188.032a36.053333 36.053333 0 0 0 50.986667 0 35.925333 35.925333 0 0 0 0-50.901334l-187.989333-188.032z" opacity=".65" p-id="4243"></path></svg>