<svg t="1735745443103" class="icon" viewBox="0 0 1024 1024" version="1.1" xmlns="http://www.w3.org/2000/svg" p-id="4389" width="200" height="200"><path d="M281.611519 767.961602l-204.789761 0c-42.340283 0-76.79616-34.455877-76.79616-76.79616l0-614.369282c0-42.340283 34.455877-76.79616 76.79616-76.79616l716.764162 0c42.340283 0 76.79616 34.455877 76.79616 76.79616l0 358.382081c0 14.130493-11.468227 25.59872-25.59872 25.59872s-25.59872-11.468227-25.59872-25.59872l0-358.382081c0-14.130493-11.468227-25.59872-25.59872-25.59872l-716.764162 0c-14.130493 0-25.59872 11.468227-25.59872 25.59872l0 614.369282c0 14.130493 11.468227 25.59872 25.59872 25.59872l204.789761 0c14.130493 0 25.59872 11.468227 25.59872 25.59872s-11.468227 25.59872-25.59872 25.59872z" fill="#000000" p-id="4390"></path><path d="M665.59232 1023.948803c-10.137093 0-19.762212-6.092495-23.755612-16.075996l-86.882056-217.179541-151.698015 173.354532c-7.014049 8.037998-18.277486 10.853857-28.260987 7.116444s-16.587971-13.311334-16.587971-23.960402l0-767.961602c0-10.137093 5.9901-19.301435 15.256837-23.39723s20.069397-2.355082 27.59542 4.454177l563.171841 511.974401c7.833208 7.116444 10.495475 18.328684 6.655667 28.158592s-13.311334 16.383181-23.858007 16.383181l-218.152292 0 88.366782 220.865757c5.273336 13.106545-1.126344 28.005-14.284086 33.278336l-127.9936 51.19744c-3.123044 1.228739-6.348483 1.843108-9.522724 1.843108zM563.19744 716.764162c1.433528 0 2.867057 0.102395 4.300585 0.358382 8.80596 1.484726 16.127194 7.474826 19.455027 15.717614l92.872156 232.231588 80.482376-32.20319-92.872156-232.231588c-3.174241-7.884406-2.20149-16.843958 2.559872-23.858007s12.696965-11.263437 21.19574-11.263437l189.788911 0-471.374831-428.522574 0 641.964702 134.342083-153.541123c4.914954-5.580521 11.929004-8.754762 19.250237-8.754762z" p-id="4391"></path></svg>