<svg t="1734056362995" class="icon" viewBox="0 0 1024 1024" version="1.1" xmlns="http://www.w3.org/2000/svg" p-id="11239" width="200" height="200"><path d="M810.666667 85.333333a128 128 0 0 1 128 128v597.333334a128 128 0 0 1-128 128H213.333333a128 128 0 0 1-128-128V213.333333a128 128 0 0 1 128-128h597.333334zM341.333333 170.666667H213.333333l-5.802666 0.426666a42.538667 42.538667 0 0 0-36.48 36.437334L170.666667 213.333333v597.333334l0.426666 5.802666a42.538667 42.538667 0 0 0 36.437334 36.48L213.333333 853.333333h128V170.666667z m469.333334 0h-384v682.666666h384l5.802666-0.426666a42.538667 42.538667 0 0 0 36.48-36.437334L853.333333 810.666667V213.333333l-0.426666-5.802666A42.538667 42.538667 0 0 0 810.666667 170.666667z" currentcolor="#666666" p-id="11240"></path></svg>