<svg t="1735181808358" class="icon" viewBox="0 0 1024 1024" version="1.1" xmlns="http://www.w3.org/2000/svg" p-id="10681" width="200" height="200"><path d="M725.333333 768a85.333333 85.333333 0 0 0 85.333334-85.333333V298.666667a85.333333 85.333333 0 0 0-85.333334-85.333334h-195.84a42.666667 42.666667 0 0 1-29.866666-12.373333l-60.586667-60.586667a42.666667 42.666667 0 0 0-29.866667-12.373333H128a85.333333 85.333333 0 0 0-85.333333 85.333333v469.333334a85.333333 85.333333 0 0 0 85.333333 85.333333z m170.666667-384v384a85.333333 85.333333 0 0 1-85.333333 85.333333H213.333333a85.333333 85.333333 0 0 0 85.333334 85.333334h512a170.666667 170.666667 0 0 0 170.666666-170.666667v-298.666667a85.333333 85.333333 0 0 0-85.333333-85.333333z" p-id="10682"></path></svg>